<?xml version="1.0" encoding="utf-8"?>
<!-- Generator: Adobe Illustrator 27.8.1, SVG Export Plug-In . SVG Version: 6.00 Build 0)  -->
<svg version="1.1" id="Layer_1" xmlns="http://www.w3.org/2000/svg" xmlns:xlink="http://www.w3.org/1999/xlink" x="0px" y="0px"
	 viewBox="0 0 89 103.3" style="enable-background:new 0 0 89 103.3;" xml:space="preserve">
<style type="text/css">
	.st0{fill:#EA570D;}
</style>
<path class="st0" d="M0,51.6c0,28.6,22.7,51.6,50.8,51.6c14.7,0,27.8-6.2,37-16.1c1.2-1.2,0.9-3.2-0.7-4.5c-1.4-1.4-7.9-6.9-8.5-7.5
	c-0.6-0.6-2.7-1.3-4.7,0.4c-6,6-14.1,9.6-23,9.6c-18.1,0-32.9-15.1-32.9-33.7C17.8,33.1,32.7,18,50.8,18c9.5,0,18,4.2,24,10.6
	c1.1,1.3,2.6,0.4,3,0l10.4-8.9c1-0.9,1-2,0.1-3C79.1,6.5,65.7,0,50.8,0C22.7,0,0,23.2,0,51.6"/>
</svg>
