<svg width="156" height="53" viewBox="0 0 156 53" fill="none" xmlns="http://www.w3.org/2000/svg">
<g id="logo 1" clip-path="url(#clip0_803_2669)">
<g id="Group">
<g id="Group_2">
<path id="Vector" d="M1.07324 40.5986H10.1929V42.6126H6.86692V52.8946H4.39924V42.6126H1.07324V40.5986Z" fill="#EA570D"/>
<path id="Vector_2" d="M18.4541 53.0002C14.9136 53.0002 12.124 50.3502 12.124 46.7462C12.124 43.0362 15.0209 40.4922 18.4541 40.4922C21.9947 40.4922 24.7843 43.1422 24.7843 46.7462C24.8916 50.4562 21.9947 53.0002 18.4541 53.0002ZM18.4541 50.7742C20.7072 50.7742 22.2093 49.1842 22.2093 46.6402C22.2093 44.0962 20.7072 42.6122 18.4541 42.6122C16.2011 42.6122 14.5917 44.2022 14.5917 46.6402C14.5917 49.0782 16.2011 50.7742 18.4541 50.7742Z" fill="#EA570D"/>
<path id="Vector_3" d="M30.6855 47.3826V52.8946H28.2178V40.5986H30.6855V46.1106L35.1916 40.5986H38.1958L33.0458 46.6406L38.3031 52.7886H35.1916L30.6855 47.3826Z" fill="#EA570D"/>
<path id="Vector_4" d="M48.2812 42.6126H43.5604V45.6866H47.7448V47.5946H43.5604V50.8806H48.2812V52.8946H41.0928V40.5986H48.2812V42.6126Z" fill="#EA570D"/>
<path id="Vector_5" d="M62.2292 40.5986V52.8946H59.7615L54.0751 44.4146V52.8946H51.6074V40.5986H54.0751L59.7615 49.0786V40.5986H62.2292Z" fill="#EA570D"/>
<path id="Vector_6" d="M65.7695 40.5986H68.2372V52.8946H65.7695V40.5986Z" fill="#EA570D"/>
<path id="Vector_7" d="M79.932 42.5066L74.3529 50.7746H79.932V52.8946H71.4561V50.9866L77.0352 42.7186H71.4561V40.5986H79.932V42.5066Z" fill="#EA570D"/>
<path id="Vector_8" d="M90.768 50.5626H85.8327L84.9744 52.8946H82.3994L86.9056 40.5986H89.8024L94.3086 52.8946H91.6264L90.768 50.5626ZM88.3004 43.4606L86.4764 48.6546H90.1243L88.3004 43.4606Z" fill="#EA570D"/>
<path id="Vector_9" d="M96.2393 40.5986H105.359V42.6126H102.033V52.8946H99.5653V42.6126H96.2393V40.5986Z" fill="#EA570D"/>
<path id="Vector_10" d="M108.256 40.5986H110.724V52.8946H108.256V40.5986Z" fill="#EA570D"/>
<path id="Vector_11" d="M120.058 53.0002C116.517 53.0002 113.728 50.3502 113.728 46.7462C113.728 43.0362 116.624 40.4922 120.058 40.4922C123.598 40.4922 126.388 43.1422 126.388 46.7462C126.495 50.4562 123.598 53.0002 120.058 53.0002ZM120.058 50.7742C122.311 50.7742 123.813 49.1842 123.813 46.6402C123.813 44.0962 122.311 42.6122 120.058 42.6122C117.805 42.6122 116.195 44.2022 116.195 46.6402C116.195 49.0782 117.805 50.7742 120.058 50.7742Z" fill="#EA570D"/>
<path id="Vector_12" d="M140.014 40.5986V52.8946H137.547L131.86 44.4146V52.8946H129.393V40.5986H131.86L137.547 49.0786V40.5986H140.014Z" fill="#EA570D"/>
</g>
<g id="Group_3">
<path id="Vector_13" d="M0 13.568C0 21.094 6.00825 27.136 13.5186 27.136C17.381 27.136 20.9216 25.546 23.3893 22.896C23.7111 22.578 23.6039 22.048 23.1747 21.73C22.7455 21.306 21.0289 19.928 20.9216 19.716C20.8143 19.61 20.1706 19.398 19.6341 19.822C18.0248 21.412 15.879 22.366 13.5186 22.366C8.69051 22.366 4.72077 18.444 4.72077 13.462C4.72077 8.48 8.69051 4.558 13.5186 4.558C16.0935 4.558 18.3466 5.618 19.956 7.314C20.2779 7.632 20.5997 7.42 20.707 7.314L23.4966 4.982C23.7111 4.77 23.7111 4.452 23.4966 4.24C21.0289 1.696 17.4883 0 13.5186 0C6.00825 0 0 6.042 0 13.568Z" fill="currentColor"/>
<path id="Vector_14" d="M50.4266 0.318359C49.7828 0.318359 49.7828 0.742359 49.8901 1.06036L55.4692 11.0244C55.6838 11.4484 56.2202 11.5544 56.5421 11.0244L58.1515 8.16236C58.4733 7.52636 58.366 6.89036 58.1515 6.46636C56.6494 3.81636 55.2546 1.06036 55.1473 0.954359C55.04 0.742359 54.9327 0.424359 53.9671 0.424359H50.4266V0.318359ZM67.593 0.318359C66.842 0.318359 66.6274 0.742359 66.5201 0.954359C66.4128 1.16636 63.1941 7.20836 61.692 9.85836C59.6535 13.3564 58.6879 15.6884 58.6879 17.3844V26.0764C58.6879 26.5004 59.0098 26.7124 59.3316 26.7124H62.6576C63.0868 26.7124 63.3014 26.3944 63.3014 26.0764C63.3014 26.0764 63.3014 17.7024 63.3014 17.0664C63.3014 16.4304 63.4087 15.9004 63.7305 15.4764L71.7773 1.06036C71.8846 0.954359 72.2065 0.318359 71.2409 0.318359H67.593Z" fill="currentColor"/>
<path id="Vector_15" d="M76.6057 0.318359C76.1765 0.318359 75.9619 0.636359 75.9619 1.06036V4.55836C75.9619 4.98236 76.2838 5.30036 76.6057 5.30036H85.0816C87.0128 5.30036 88.6222 6.89036 88.6222 8.79836C88.6222 10.7064 87.0128 12.2964 85.0816 12.2964H76.6057C76.1765 12.2964 75.9619 12.6144 75.9619 13.0384V26.2884C75.9619 26.7124 76.2838 26.9244 76.6057 26.9244H79.5025C79.9316 26.9244 80.2535 26.6064 80.2535 26.2884V17.8084C80.2535 17.3844 80.4681 17.2784 81.0046 17.2784H85.0816C89.8024 17.2784 93.5575 13.4624 93.5575 8.90436C93.5575 4.24036 89.6951 0.424359 85.0816 0.424359H76.6057V0.318359Z" fill="currentColor"/>
<path id="Vector_16" d="M97.312 0.424359C97.0974 0.424359 96.8828 0.636359 96.8828 0.848359V4.55836C96.8828 4.77036 97.0974 4.98236 97.312 4.98236H103.749C104.286 4.98236 104.715 5.40636 104.715 5.93636V26.3944C104.715 26.7124 104.93 26.9244 105.251 26.9244H109.758C110.08 26.9244 110.294 26.7124 110.294 26.3944V5.83036C110.294 5.30036 110.723 4.87636 111.26 4.87636H117.59C117.912 4.87636 118.126 4.66436 118.126 4.34636V0.848359C118.126 0.636359 117.912 0.318359 117.59 0.318359H97.312V0.424359Z" fill="currentColor"/>
<path id="Vector_17" d="M124.457 0.318359C124.028 0.318359 123.706 0.636359 123.706 1.06036V26.1824C123.706 26.6064 124.028 26.8184 124.457 26.8184H128.32C128.749 26.8184 128.963 26.5004 128.963 26.1824V1.06036C128.963 0.636359 128.641 0.318359 128.32 0.318359H124.457Z" fill="currentColor"/>
<path id="Vector_18" d="M147.632 20.8824C147.202 21.4124 147.31 21.8364 147.632 22.3664L150.207 26.5004C150.421 26.8184 150.743 26.9244 151.28 26.9244H155.142C155.678 26.9244 155.678 26.3944 155.464 25.9704L150.528 18.0204C150.421 17.8084 150.314 17.8084 150.099 17.8084C149.563 17.7024 148.705 18.9744 147.632 20.8824ZM151.816 0.318359C151.172 0.318359 150.85 0.318359 150.636 0.636359L145.057 9.54036L139.478 0.636359C139.263 0.424359 138.941 0.318359 138.405 0.318359H134.435C134.006 0.318359 133.898 0.848359 134.22 1.27236L142.267 13.8864L134.757 25.8644C134.542 26.2884 134.542 26.8184 135.079 26.8184H138.941C139.478 26.8184 139.799 26.7124 140.014 26.3944L155.893 1.27236C156.108 0.848359 156.108 0.318359 155.678 0.318359H151.816Z" fill="currentColor"/>
<path id="Vector_19" d="M30.2559 0.318359C29.8268 0.318359 29.6122 0.636359 29.6122 1.06036V4.55836C29.6122 4.98236 29.934 5.30036 30.2559 5.30036H38.1954C40.2339 5.30036 41.8433 6.89036 41.8433 8.79836C41.8433 10.7064 40.2339 12.2964 38.1954 12.2964H30.2559C29.8268 12.2964 29.5049 12.6144 29.5049 13.0384V26.2884C29.5049 26.7124 29.8268 26.9244 30.2559 26.9244H33.26C33.6892 26.9244 34.0111 26.6064 34.0111 26.2884V17.9144C34.0111 17.3844 34.4402 17.2784 34.9767 17.2784H38.1954C38.9464 17.2784 39.161 17.3844 39.2683 17.7024C39.3756 18.0204 43.238 26.6064 43.238 26.6064C43.4526 27.0304 43.7745 27.0304 44.2036 27.0304H47.3151C47.7442 27.0304 48.0661 26.8184 47.7442 26.0764L43.3453 16.3244C43.3453 16.3244 43.1307 15.7944 43.5599 15.5824C45.5984 13.9924 46.8859 11.6604 46.8859 9.01036C46.8859 4.34636 43.0235 0.530359 38.1954 0.530359H30.2559V0.318359Z" fill="currentColor"/>
</g>
</g>
</g>
<defs>
<clipPath id="clip0_803_2669">
<rect width="156" height="53" fill="white"/>
</clipPath>
</defs>
</svg>
